<svg width="32" height="32" viewBox="0 0 32 32" fill="none" xmlns="http://www.w3.org/2000/svg">
<g id="pen-fill" clip-path="url(#clip0_4400_2017)">
<path id="Vector" d="M26.6628 1.96335L27.0153 2.2777L27.3492 1.94376L27.6471 1.64587C27.6471 1.64583 27.6472 1.6458 27.6472 1.64576C27.825 1.46806 28.0361 1.32712 28.2684 1.23098C28.5007 1.13482 28.7497 1.08537 29.0012 1.08544C29.2526 1.08551 29.5016 1.13511 29.7339 1.23141C29.9662 1.3277 30.1772 1.4688 30.355 1.64666C30.5327 1.82451 30.6737 2.03564 30.7699 2.26798C30.866 2.50032 30.9155 2.74932 30.9154 3.00077C30.9153 3.25222 30.8657 3.5012 30.7694 3.73348C30.6733 3.96546 30.5324 4.17625 30.3549 4.35385C30.3547 4.35408 30.3544 4.35432 30.3542 4.35455L30.0573 4.64947L29.7211 4.98335L30.0364 5.33696C30.4612 5.8134 30.6877 6.43429 30.6694 7.07235C30.6512 7.7104 30.3895 8.3173 29.9381 8.76863L29.9381 8.76867L9.35501 29.3537C9.35482 29.3539 9.35463 29.3541 9.35444 29.3543C9.2902 29.418 9.20986 29.4631 9.12201 29.4847L9.12036 29.4851L1.12081 31.485C1.03711 31.5059 0.949432 31.5047 0.86631 31.4816C0.783184 31.4586 0.707443 31.4144 0.646447 31.3534C0.585449 31.2924 0.54127 31.2167 0.518205 31.1335C0.495157 31.0505 0.493974 30.9629 0.514767 30.8792C0.514783 30.8792 0.5148 30.8791 0.514816 30.879L2.5147 22.8795L2.51478 22.8792C2.5366 22.7916 2.5817 22.7116 2.64529 22.6477C2.64545 22.6475 2.64562 22.6473 2.64578 22.6472L21.9292 3.36376L22.3495 2.94345L21.8634 2.60133C21.5741 2.39772 21.2222 2.30291 20.8697 2.33365C20.5174 2.36438 20.1873 2.51861 19.9376 2.76909C19.9376 2.76917 19.9375 2.76925 19.9374 2.76933L13.3541 9.35466C13.3075 9.40121 13.2523 9.43813 13.1915 9.46332L13.3828 9.92526L13.1915 9.46332C13.1306 9.48851 13.0655 9.50147 12.9996 9.50147C12.9338 9.50147 12.8686 9.48851 12.8078 9.46332L12.6165 9.92526L12.8078 9.46332C12.747 9.43813 12.6917 9.40121 12.6452 9.35466C12.5986 9.30811 12.5617 9.25285 12.5365 9.19203C12.5113 9.13122 12.4984 9.06604 12.4984 9.00021C12.4984 8.93439 12.5113 8.8692 12.5365 8.80838C12.5617 8.74762 12.5986 8.6924 12.6451 8.64587C12.6451 8.64583 12.6451 8.6458 12.6452 8.64576L19.2331 2.06187L19.2332 2.06176C19.6848 1.61012 20.2922 1.34846 20.9306 1.33048C21.5691 1.31251 22.1902 1.53958 22.6665 1.96509L22.9997 2.26273L23.3328 1.96502C23.7908 1.55575 24.3833 1.32937 24.9975 1.32906C25.6117 1.32876 26.2045 1.55454 26.6628 1.96335Z" fill="#9747FF" stroke="white"/>
</g>
<defs>
<clipPath id="clip0_4400_2017">
<rect width="32" height="32" fill="white"/>
</clipPath>
</defs>
</svg>
